<svg xmlns="http://www.w3.org/2000/svg" width="33" height="33" viewBox="0 0 33 33"><defs><style>.a{fill:none;}.b{fill:#6d6d78;}</style></defs><g transform="translate(0 -0.354)"><rect class="a" width="33" height="33" transform="translate(0 0.354)"/><path class="b" d="M14.313,0H5.749C2.216,0,0,2.492,0,6.491v16.5a2.07,2.07,0,0,0,2.034,2.1,2,2,0,0,0,.974-.255l6.969-3.91,8.115,3.932a.872.872,0,0,0,.689,0,.915.915,0,0,0,.489-.5.957.957,0,0,0-.4-1.108l-8.061-3.9a1.7,1.7,0,0,0-1.691,0l-6.98,3.9a.26.26,0,0,1-.257,0,.269.269,0,0,1-.118-.233V6.491C1.777,3.533,3.212,1.85,5.781,1.85h8.564c3.3,0,3.779,2.769,3.779,4.43v.753H8.854a.876.876,0,0,0-.619.293A.938.938,0,0,0,8,7.986a.893.893,0,0,0,.856.886h9.239v9.692a.889.889,0,1,0,1.777.011h0V6.28C19.87,2.4,17.75,0,14.313,0Z" transform="translate(7.264 4.463)"/></g></svg>