<svg xmlns="http://www.w3.org/2000/svg" width="33" height="33" viewBox="0 0 33 33"><defs><style>.a{fill:none;}.b{fill:#002984;}</style></defs><rect class="a" width="33" height="33"/><g transform="translate(5.172 3.985)"><path class="b" d="M10.279,16.818H5.089a3.035,3.035,0,0,1-3.058-2.976V3.755a1.846,1.846,0,0,1,.688-1.422l.914-.661A.975.975,0,0,0,3.714.409,1.03,1.03,0,0,0,2.46.095h0L1.523.778A3.807,3.807,0,0,0,0,3.755v10.1a5.042,5.042,0,0,0,5.089,4.972h5.19a.992.992,0,1,0,0-1.984Z" transform="translate(0 6.27)"/><path class="b" d="M17.569,10.043A3.865,3.865,0,0,0,16.13,7.071L8.539,1.007a4.553,4.553,0,0,0-5.713,0L.42,2.757A1.009,1.009,0,0,0,1.6,4.4L4.034,2.57a2.589,2.589,0,0,1,3.3,0l7.591,6.064a1.861,1.861,0,0,1,.7,1.431V20.146a2.969,2.969,0,0,1-2.966,2.971H10.406a.418.418,0,0,1-.417-.418V18.154a2.628,2.628,0,0,0-2.615-2.63h-3.3a2.628,2.628,0,0,0-2.626,2.63v1.739a.989.989,0,1,0,1.977,0V18.154a.638.638,0,0,1,.637-.649h3.3A.638.638,0,0,1,8,18.143V22.7a2.408,2.408,0,0,0,2.406,2.4h2.2a4.959,4.959,0,0,0,4.955-4.963Z" transform="translate(6.275)"/></g></svg>