<svg xmlns="http://www.w3.org/2000/svg" width="33" height="33" viewBox="0 0 33 33"><defs><style>.a,.b{fill:none;}.b{stroke:#6d6d78;stroke-linecap:round;stroke-linejoin:round;stroke-miterlimit:10;stroke-width:1.714px;}</style></defs><g transform="translate(0 0.293)"><rect class="a" width="33" height="33" transform="translate(0 -0.293)"/><g transform="translate(7.264 4)"><circle class="b" cx="6.5" cy="6.5" r="6.5" transform="translate(2.736 -0.293)"/><path class="b" d="M0,4.179A3.366,3.366,0,0,1,.273,2.835C.842,1.566,2.445.894,3.776.59A18.843,18.843,0,0,1,6.688.133a27.927,27.927,0,0,1,5.448,0A19.058,19.058,0,0,1,15.047.59c1.331.3,2.934.913,3.5,2.245a3.475,3.475,0,0,1,0,2.7c-.569,1.332-2.172,1.941-3.5,2.232a17.648,17.648,0,0,1-2.912.469A28.781,28.781,0,0,1,7.7,8.314a4.54,4.54,0,0,1-1.012-.076,17.32,17.32,0,0,1-2.9-.469C2.445,7.477.853,6.868.273,5.537A3.465,3.465,0,0,1,0,4.179Z" transform="translate(0 17.125)"/></g></g></svg>