<svg xmlns="http://www.w3.org/2000/svg" width="213.918" height="45.342" viewBox="0 0 213.918 45.342"><defs><style>.a{fill:#6a6a6a;}.b{fill:#002984;}.c{fill:#10a3ff;}</style></defs><path class="a" d="M133.907,439.542a2.126,2.126,0,0,1-1.139-1.926,1.693,1.693,0,0,1,.391-1.16,1.229,1.229,0,0,1,.96-.445,3.933,3.933,0,0,1,1.674.57,15.521,15.521,0,0,0,2.082.821,8.46,8.46,0,0,0,2.4.285,4.558,4.558,0,0,0,2.332-.5,1.546,1.546,0,0,0,.836-1.391,1.344,1.344,0,0,0-.339-.963,3.113,3.113,0,0,0-1.21-.66,25.514,25.514,0,0,0-2.651-.7,10.156,10.156,0,0,1-4.538-1.819,4.051,4.051,0,0,1-1.37-3.246,4.687,4.687,0,0,1,.925-2.835,6,6,0,0,1,2.544-1.962,9.257,9.257,0,0,1,3.684-.7,11.032,11.032,0,0,1,2.883.375,8.761,8.761,0,0,1,2.492,1.088,2.155,2.155,0,0,1,1.139,1.891,1.838,1.838,0,0,1-.391,1.2,1.2,1.2,0,0,1-.961.481,1.926,1.926,0,0,1-.765-.16,10.266,10.266,0,0,1-.944-.481,14.851,14.851,0,0,0-1.779-.8,5.546,5.546,0,0,0-1.851-.267,3.576,3.576,0,0,0-2.083.535,1.69,1.69,0,0,0-.765,1.462,1.486,1.486,0,0,0,.783,1.356,11.167,11.167,0,0,0,3.026.927,17.253,17.253,0,0,1,3.737,1.141,4.383,4.383,0,0,1,1.939,1.605,4.669,4.669,0,0,1,.588,2.461,4.579,4.579,0,0,1-2.011,3.889,8.913,8.913,0,0,1-5.357,1.462,11.416,11.416,0,0,1-6.265-1.534" transform="translate(-87.604 -409.285)"/><path class="a" d="M163.635,438.625a1.452,1.452,0,0,1-.694,1.3,3.311,3.311,0,0,1-1.976.375l-.96-.071q-5.98-.428-5.98-6.42v-7.776h-1.78a2.254,2.254,0,0,1-1.477-.428,1.768,1.768,0,0,1,0-2.5,2.254,2.254,0,0,1,1.477-.427h1.78V419.4a2.008,2.008,0,0,1,.605-1.534,2.29,2.29,0,0,1,1.637-.571,2.245,2.245,0,0,1,1.6.571,2.011,2.011,0,0,1,.605,1.534v3.282H161.5a2.254,2.254,0,0,1,1.477.427,1.768,1.768,0,0,1,0,2.5,2.254,2.254,0,0,1-1.477.428h-3.026v8.1q0,2.64,2.42,2.819l.96.071q1.78.107,1.78,1.605" transform="translate(-89.71 -408.618)"/><path class="a" d="M183.177,423.571a2.008,2.008,0,0,1,.605,1.534v13.84a1.935,1.935,0,0,1-.623,1.5,2.309,2.309,0,0,1-1.62.57,2.146,2.146,0,0,1-1.53-.534,1.91,1.91,0,0,1-.569-1.463v-.891a5.687,5.687,0,0,1-2.208,2.193,6.369,6.369,0,0,1-3.132.767q-6.408,0-6.407-7.205V425.1a2.008,2.008,0,0,1,.605-1.534,2.242,2.242,0,0,1,1.6-.57,2.294,2.294,0,0,1,1.638.57,2.008,2.008,0,0,1,.605,1.534v8.811a4.212,4.212,0,0,0,.748,2.746,2.9,2.9,0,0,0,2.349.892,3.831,3.831,0,0,0,2.973-1.231,4.66,4.66,0,0,0,1.121-3.263V425.1a2.008,2.008,0,0,1,.605-1.534,2.242,2.242,0,0,1,1.6-.57,2.294,2.294,0,0,1,1.638.57" transform="translate(-91.811 -409.295)"/><path class="a" d="M206.992,415.032a1.911,1.911,0,0,1,.641,1.5v21.33a2.008,2.008,0,0,1-.605,1.534,2.532,2.532,0,0,1-3.2,0,2,2,0,0,1-.605-1.534v-.892a5.574,5.574,0,0,1-2.26,2.284,6.812,6.812,0,0,1-3.363.82,7.2,7.2,0,0,1-4-1.141,7.56,7.56,0,0,1-2.741-3.228,11.166,11.166,0,0,1-.979-4.8,10.815,10.815,0,0,1,.979-4.745,7.183,7.183,0,0,1,6.745-4.244,6.962,6.962,0,0,1,3.346.784,5.445,5.445,0,0,1,2.243,2.211v-8.453a1.893,1.893,0,0,1,.588-1.445,2.216,2.216,0,0,1,1.583-.554,2.371,2.371,0,0,1,1.638.571m-4.93,20.118a6.593,6.593,0,0,0,1.157-4.173,6.517,6.517,0,0,0-1.157-4.155,3.936,3.936,0,0,0-3.257-1.446,4.049,4.049,0,0,0-3.311,1.427,6.307,6.307,0,0,0-1.175,4.1,6.677,6.677,0,0,0,1.175,4.209,4.382,4.382,0,0,0,6.568.035" transform="translate(-94.483 -408.282)"/><path class="a" d="M227.639,423.339a1.931,1.931,0,0,1,1.05-.3,2.235,2.235,0,0,1,1.477.554,1.724,1.724,0,0,1,.659,1.373,1.841,1.841,0,0,1-.213.82l-9.718,20.4a1.99,1.99,0,0,1-1.887,1.213,2.19,2.19,0,0,1-1.442-.517,1.62,1.62,0,0,1-.623-1.3,2.3,2.3,0,0,1,.213-.891l2.421-5.1-6.621-13.805a1.807,1.807,0,0,1-.177-.82,1.741,1.741,0,0,1,.693-1.392,2.429,2.429,0,0,1,1.585-.57,2.085,2.085,0,0,1,1.1.3,2.028,2.028,0,0,1,.784.945l4.983,11.022,4.948-10.986a2.063,2.063,0,0,1,.765-.946" transform="translate(-97.243 -409.295)"/><path class="a" d="M261.048,424.614q1.512,1.695,1.513,5.475v8.775a2.011,2.011,0,0,1-.624,1.587,2.349,2.349,0,0,1-1.619.553,2.3,2.3,0,0,1-1.584-.553,2.01,2.01,0,0,1-.623-1.587v-8.775a4.423,4.423,0,0,0-.694-2.8,2.594,2.594,0,0,0-2.118-.838,3.484,3.484,0,0,0-2.777,1.2,4.827,4.827,0,0,0-1.033,3.264v7.955a2.01,2.01,0,0,1-.623,1.587,2.3,2.3,0,0,1-1.584.553,2.364,2.364,0,0,1-1.6-.553,1.98,1.98,0,0,1-.64-1.587v-8.775a4.417,4.417,0,0,0-.695-2.8,2.594,2.594,0,0,0-2.117-.838,3.432,3.432,0,0,0-2.759,1.2,4.885,4.885,0,0,0-1.014,3.264v7.955a1.981,1.981,0,0,1-.641,1.587,2.366,2.366,0,0,1-1.6.553,2.3,2.3,0,0,1-1.584-.553,2.007,2.007,0,0,1-.623-1.587v-13.8a1.885,1.885,0,0,1,.64-1.534,2.412,2.412,0,0,1,1.6-.535,2.208,2.208,0,0,1,1.513.516,1.871,1.871,0,0,1,.588,1.481v.856a5.583,5.583,0,0,1,2.189-2.175,6.458,6.458,0,0,1,3.15-.749q3.914,0,5.232,3.281a5.886,5.886,0,0,1,2.314-2.39,6.741,6.741,0,0,1,3.452-.891,5.542,5.542,0,0,1,4.361,1.694" transform="translate(-100.041 -409.285)"/><path class="a" d="M283.9,424.722q1.761,1.8,1.762,5.475v8.7a2.014,2.014,0,0,1-.569,1.516,2.152,2.152,0,0,1-1.566.554,2.078,2.078,0,0,1-1.513-.571,1.993,1.993,0,0,1-.588-1.5v-.784a4.648,4.648,0,0,1-1.9,2.175,5.708,5.708,0,0,1-3.007.784,6.979,6.979,0,0,1-3.169-.713A5.627,5.627,0,0,1,271.1,438.4a4.962,4.962,0,0,1-.819-2.783,4.41,4.41,0,0,1,.979-3.032,5.881,5.881,0,0,1,3.186-1.6,28.993,28.993,0,0,1,6.086-.5h.89v-.821a3.657,3.657,0,0,0-.748-2.551,3.176,3.176,0,0,0-2.42-.8,7.683,7.683,0,0,0-2.1.3q-1.067.3-2.527.873a3.549,3.549,0,0,1-1.352.464,1.335,1.335,0,0,1-1.05-.464,1.76,1.76,0,0,1-.41-1.213,1.827,1.827,0,0,1,.3-1.052,2.877,2.877,0,0,1,1.014-.838,11.656,11.656,0,0,1,2.973-1.07,15.283,15.283,0,0,1,3.4-.392q3.632,0,5.393,1.8m-3.6,11.949a4.324,4.324,0,0,0,1.121-3.085v-.749h-.64a24.487,24.487,0,0,0-3.7.214,3.588,3.588,0,0,0-1.887.748,1.91,1.91,0,0,0-.57,1.463,2.425,2.425,0,0,0,.8,1.873,2.821,2.821,0,0,0,1.975.731,3.8,3.8,0,0,0,2.9-1.2" transform="translate(-104.17 -409.285)"/><path class="a" d="M303.095,438.625a1.452,1.452,0,0,1-.694,1.3,3.311,3.311,0,0,1-1.976.375l-.961-.071q-5.98-.428-5.98-6.42v-7.776H291.7a2.254,2.254,0,0,1-1.477-.428,1.767,1.767,0,0,1,0-2.5,2.254,2.254,0,0,1,1.477-.427h1.78V419.4a2.007,2.007,0,0,1,.605-1.534,2.289,2.289,0,0,1,1.637-.571,2.247,2.247,0,0,1,1.6.571,2.01,2.01,0,0,1,.6,1.534v3.282h3.026a2.257,2.257,0,0,1,1.478.427,1.77,1.77,0,0,1,0,2.5,2.256,2.256,0,0,1-1.478.428h-3.026v8.1q0,2.64,2.421,2.819l.96.071q1.78.107,1.78,1.605" transform="translate(-106.511 -408.618)"/><path class="a" d="M321.9,436.475a1.929,1.929,0,0,1,.374,1.248,2.163,2.163,0,0,1-1.317,1.855,11.929,11.929,0,0,1-2.741,1.088,11.291,11.291,0,0,1-2.919.411,9.061,9.061,0,0,1-6.656-2.426,8.9,8.9,0,0,1-2.457-6.635,10.205,10.205,0,0,1,1.069-4.745,7.776,7.776,0,0,1,3.008-3.21,8.5,8.5,0,0,1,4.4-1.141,7.871,7.871,0,0,1,4.093,1.035,7.006,7.006,0,0,1,2.7,2.924,9.717,9.717,0,0,1,.961,4.459q0,1.534-1.353,1.534h-10.5a5.619,5.619,0,0,0,1.389,3.621,4.664,4.664,0,0,0,3.417,1.159,6.468,6.468,0,0,0,2.011-.286,19.728,19.728,0,0,0,1.975-.784,3.924,3.924,0,0,1,1.566-.57,1.2,1.2,0,0,1,.978.464M311.858,427.2a5.4,5.4,0,0,0-1.3,3.282H318.6a5.1,5.1,0,0,0-1.068-3.3,3.519,3.519,0,0,0-2.777-1.124,3.82,3.82,0,0,0-2.9,1.141" transform="translate(-108.495 -409.285)"/><path class="b" d="M85.172,418.57l-3.754,25.444a27.085,27.085,0,0,1,19.067,10.1q.1-13.067.2-26.136a16.922,16.922,0,0,0-4.742-5.841,17.411,17.411,0,0,0-10.768-3.564" transform="translate(-81.418 -408.769)"/><path class="c" d="M119.955,418.57l3.754,25.444a27.085,27.085,0,0,0-19.066,10.1q-.1-13.067-.2-26.136a16.932,16.932,0,0,1,4.742-5.841,17.412,17.412,0,0,1,10.769-3.564" transform="translate(-84.192 -408.769)"/><path class="b" d="M91.976,412.3a4.743,4.743,0,1,0,4.742-4.851,4.8,4.8,0,0,0-4.742,4.851" transform="translate(-82.69 -407.45)"/><path class="c" d="M105.23,412.3a4.743,4.743,0,1,0,4.742-4.851,4.8,4.8,0,0,0-4.742,4.851" transform="translate(-84.287 -407.45)"/></svg>